<mxfile host="app.diagrams.net" modified="2022-10-08T15:20:05.412Z" agent="5.0 (Windows NT 10.0; Win64; x64) AppleWebKit/537.36 (KHTML, like Gecko) Chrome/105.0.0.0 Safari/537.36" etag="dC9UcRu866g90eq14dYz" version="20.4.0" type="github">
  <diagram id="Vlmzc5bIfACgfQ8sw7Tj" name="ページ1">
    <mxGraphModel dx="2054" dy="636" grid="1" gridSize="10" guides="1" tooltips="1" connect="1" arrows="1" fold="1" page="1" pageScale="1" pageWidth="827" pageHeight="1169" math="0" shadow="0">
      <root>
        <mxCell id="0" />
        <mxCell id="1" parent="0" />
        <mxCell id="uLu-PSUtO7_ONj930s_b-3" value="" style="whiteSpace=wrap;html=1;shadow=0;strokeColor=#EBEBEB;strokeWidth=1;" vertex="1" parent="1">
          <mxGeometry x="-60" y="454.13" width="600" height="285.87" as="geometry" />
        </mxCell>
        <mxCell id="jHCnX__sWSKemb0coJZo-43" style="edgeStyle=orthogonalEdgeStyle;rounded=0;orthogonalLoop=1;jettySize=auto;html=1;strokeColor=#999999;fontSize=10;fontColor=#808080;" parent="1" edge="1">
          <mxGeometry relative="1" as="geometry">
            <mxPoint x="230" y="548" as="targetPoint" />
            <mxPoint x="180" y="548" as="sourcePoint" />
          </mxGeometry>
        </mxCell>
        <mxCell id="jHCnX__sWSKemb0coJZo-35" value="" style="whiteSpace=wrap;html=1;shadow=0;strokeColor=#EBEBEB;strokeWidth=1;" parent="1" vertex="1">
          <mxGeometry x="-40" y="470" width="210" height="130" as="geometry" />
        </mxCell>
        <mxCell id="jHCnX__sWSKemb0coJZo-28" value="" style="whiteSpace=wrap;html=1;shadow=0;strokeColor=#EBEBEB;strokeWidth=1;" parent="1" vertex="1">
          <mxGeometry x="-488.87" y="225" width="358.87" height="515" as="geometry" />
        </mxCell>
        <mxCell id="jHCnX__sWSKemb0coJZo-27" style="edgeStyle=orthogonalEdgeStyle;rounded=0;orthogonalLoop=1;jettySize=auto;html=1;strokeColor=#999999;fontSize=10;fontColor=#808080;" parent="1" edge="1">
          <mxGeometry relative="1" as="geometry">
            <mxPoint x="-100" y="535" as="targetPoint" />
            <mxPoint x="-150" y="535" as="sourcePoint" />
          </mxGeometry>
        </mxCell>
        <mxCell id="jHCnX__sWSKemb0coJZo-16" value="" style="whiteSpace=wrap;html=1;shadow=0;strokeColor=#EBEBEB;strokeWidth=1;" parent="1" vertex="1">
          <mxGeometry x="-420" y="470" width="260" height="130" as="geometry" />
        </mxCell>
        <mxCell id="jHCnX__sWSKemb0coJZo-5" style="edgeStyle=orthogonalEdgeStyle;rounded=0;orthogonalLoop=1;jettySize=auto;html=1;strokeColor=#999999;exitX=0.497;exitY=0.999;exitDx=0;exitDy=0;exitPerimeter=0;" parent="1" source="jHCnX__sWSKemb0coJZo-3" edge="1">
          <mxGeometry relative="1" as="geometry">
            <mxPoint x="-570" y="370" as="sourcePoint" />
            <mxPoint x="-570" y="460" as="targetPoint" />
          </mxGeometry>
        </mxCell>
        <mxCell id="XoAqSV4q0qfwhqjt3XzW-1" value="" style="verticalLabelPosition=bottom;shadow=0;dashed=0;align=center;html=1;verticalAlign=top;strokeWidth=1;shape=mxgraph.mockup.containers.userMale;strokeColor=#EBEBEB;strokeColor2=#008cff;" parent="1" vertex="1">
          <mxGeometry x="-620" y="240" width="100" height="100" as="geometry" />
        </mxCell>
        <mxCell id="jHCnX__sWSKemb0coJZo-3" value="User" style="text;html=1;resizable=0;autosize=1;align=center;verticalAlign=middle;points=[];fillColor=none;strokeColor=none;rounded=0;" parent="1" vertex="1">
          <mxGeometry x="-595" y="335" width="50" height="30" as="geometry" />
        </mxCell>
        <mxCell id="jHCnX__sWSKemb0coJZo-4" value="" style="verticalLabelPosition=bottom;verticalAlign=top;html=1;shadow=0;dashed=0;strokeWidth=1;shape=mxgraph.android.phone2;strokeColor=#c0c0c0;" parent="1" vertex="1">
          <mxGeometry x="-601.66" y="470" width="63.33" height="123.5" as="geometry" />
        </mxCell>
        <mxCell id="jHCnX__sWSKemb0coJZo-13" style="edgeStyle=orthogonalEdgeStyle;rounded=0;orthogonalLoop=1;jettySize=auto;html=1;strokeColor=#999999;entryX=0.458;entryY=1.001;entryDx=0;entryDy=0;entryPerimeter=0;" parent="1" source="jHCnX__sWSKemb0coJZo-6" target="jHCnX__sWSKemb0coJZo-9" edge="1">
          <mxGeometry relative="1" as="geometry">
            <mxPoint x="-560" y="760" as="targetPoint" />
            <Array as="points">
              <mxPoint x="-570" y="692" />
              <mxPoint x="-292" y="692" />
            </Array>
          </mxGeometry>
        </mxCell>
        <mxCell id="jHCnX__sWSKemb0coJZo-6" value="Android" style="text;html=1;resizable=0;autosize=1;align=center;verticalAlign=middle;points=[];fillColor=none;strokeColor=none;rounded=0;" parent="1" vertex="1">
          <mxGeometry x="-600" y="600" width="60" height="30" as="geometry" />
        </mxCell>
        <mxCell id="jHCnX__sWSKemb0coJZo-10" style="edgeStyle=orthogonalEdgeStyle;rounded=0;orthogonalLoop=1;jettySize=auto;html=1;strokeColor=#999999;" parent="1" edge="1">
          <mxGeometry relative="1" as="geometry">
            <mxPoint x="-440" y="536" as="sourcePoint" />
            <mxPoint x="-530" y="536" as="targetPoint" />
            <Array as="points">
              <mxPoint x="-430" y="536" />
            </Array>
          </mxGeometry>
        </mxCell>
        <mxCell id="jHCnX__sWSKemb0coJZo-8" value="" style="shape=image;verticalLabelPosition=bottom;labelBackgroundColor=default;verticalAlign=top;aspect=fixed;imageAspect=0;image=data:image/svg+xml,PHN2ZyB4bWxucz0iaHR0cDovL3d3dy53My5vcmcvMjAwMC9zdmciIGhlaWdodD0iNDhweCIgd2lkdGg9IjQ4cHgiIHZpZXdCb3g9IjAgMCA0OCA0OCI+PHBvbHlnb24gcG9pbnRzPSIyNCw2IDE3Ljk5LDEyLjM1IDExLjk3LDE4LjY5IDYsMjUgNiw2IiBmaWxsPSIjMGQ5MWQ2Ii8+PHBvbHlnb24gcG9pbnRzPSIyNCw2IDIzLjk2LDYgMTcuOTcsMTIuMzMgMTEuOTYsMTguNjggNiwyNC45NyA2LDI1IDYsMjUuMDkgNiw0MiAxNC42OSwzMy4zMSAyMC44NywyNy4xMyAyNy4wNiwyMC45NCAzMy4yNSwxNC43NSA0Miw2IiBmaWxsPSIjZjg4OTA5Ii8+PHBvbHlnb24gcG9pbnRzPSIxNC42OSwzMy4zMSA2LDQyIDYsMjUuMDkiIGZpbGw9IiNjNzU3YmMiLz48cG9seWdvbiBwb2ludHM9IjIwLjg3LDI3LjEzIDE0LjY5LDMzLjMxIDYsMjUuMDkgNiwyNSAxMS45NywxOC42OSIgZmlsbD0iI2QzNjM4ZiIvPjxwb2x5Z29uIHBvaW50cz0iMjcuMDYsMjAuOTQgMjAuODcsMjcuMTMgMTEuOTcsMTguNjkgMTcuOTksMTIuMzUiIGZpbGw9IiNlMDcwNjMiLz48cG9seWdvbiBwb2ludHM9IjMzLjI1LDE0Ljc1IDI3LjA2LDIwLjk0IDE3Ljk5LDEyLjM1IDI0LDYiIGZpbGw9IiNlYzdkMzYiLz48cG9seWdvbiBwb2ludHM9IjQyLDYgMzMuMjUsMTQuNzUgMjQsNiIgZmlsbD0iI2Y4ODkwOSIvPjxwb2x5Z29uIHBvaW50cz0iMTEuNTEsMTkuMTUgNy45OSwyMi44OCA2LDIxIDYsMTMuOTQiIGZpbGw9IiMwMDk1ZDUiLz48cG9seWdvbiBwb2ludHM9IjE1LjAzLDE1LjQyIDExLjUxLDE5LjE1IDYsMTMuOTQgNiw2Ljg3IiBmaWxsPSIjMmI4OGRhIi8+PHBvbHlnb24gcG9pbnRzPSIxOC41NiwxMS43IDE1LjAzLDE1LjQyIDYsNi44NyA2LDYgMTIuNTMsNiIgZmlsbD0iIzU1N2JkZSIvPjxwb2x5Z29uIHBvaW50cz0iMjIuMDgsNy45NyAxOC41NiwxMS43IDEyLjUzLDYgMjQsNiIgZmlsbD0iIzgwNmVlMyIvPjxwb2x5Z29uIHBvaW50cz0iMjMsMjUgNiw0MiA5LjM1LDQyIDE3LjUyLDQyIDQwLDQyIiBmaWxsPSIjMDA5NWQ1Ii8+PHBvbHlnb24gcG9pbnRzPSIyNS42OCw0MiAxNy41Miw0MiAxMS43NiwzNi4yNSAxNS44NCwzMi4xNyIgZmlsbD0iIzJiODhkYSIvPjxwb2x5Z29uIHBvaW50cz0iMzMuODYsNDIgMjUuNjgsNDIgMTUuODQsMzIuMTcgMTkuOTIsMjguMDkiIGZpbGw9IiM1NTdiZGUiLz48cG9seWdvbiBwb2ludHM9IjQyLDQyIDMzLjg2LDQyIDE5LjkyLDI4LjA5IDI0LDI0IiBmaWxsPSIjODA2ZWUzIi8+PC9zdmc+;" parent="1" vertex="1">
          <mxGeometry x="-411.13" y="488" width="96.13" height="96.13" as="geometry" />
        </mxCell>
        <mxCell id="jHCnX__sWSKemb0coJZo-9" value="Kotlin" style="text;html=1;resizable=0;autosize=1;align=center;verticalAlign=middle;points=[];fillColor=none;strokeColor=none;rounded=0;" parent="1" vertex="1">
          <mxGeometry x="-315" y="600" width="50" height="30" as="geometry" />
        </mxCell>
        <mxCell id="jHCnX__sWSKemb0coJZo-14" value="センサー情報を提供" style="text;html=1;resizable=0;autosize=1;align=center;verticalAlign=middle;points=[];fillColor=none;strokeColor=none;rounded=0;fontSize=10;fontColor=#808080;" parent="1" vertex="1">
          <mxGeometry x="-480" y="690" width="110" height="30" as="geometry" />
        </mxCell>
        <mxCell id="jHCnX__sWSKemb0coJZo-17" value="Liblary : MPAndroidChart&lt;br&gt;&lt;br&gt;データの加工&lt;br&gt;グラフの表示&lt;br&gt;MAPの表示&lt;br&gt;UIの開発&lt;br&gt;" style="text;html=1;resizable=0;autosize=1;align=left;verticalAlign=middle;points=[];fillColor=none;strokeColor=none;rounded=0;fontSize=10;labelBorderColor=none;spacing=0;" parent="1" vertex="1">
          <mxGeometry x="-290" y="495" width="130" height="80" as="geometry" />
        </mxCell>
        <mxCell id="jHCnX__sWSKemb0coJZo-23" style="edgeStyle=orthogonalEdgeStyle;rounded=0;orthogonalLoop=1;jettySize=auto;html=1;strokeColor=#999999;fontSize=14;" parent="1" edge="1">
          <mxGeometry relative="1" as="geometry">
            <mxPoint x="-290" y="460" as="targetPoint" />
            <mxPoint x="-290" y="360" as="sourcePoint" />
          </mxGeometry>
        </mxCell>
        <mxCell id="jHCnX__sWSKemb0coJZo-20" value="&lt;font style=&quot;font-size: 14px;&quot;&gt;利用したアイコン&lt;br&gt;&lt;br&gt;&lt;a style=&quot;box-sizing: border-box; font-family: Inter, apple-system, BlinkMacSystemFont, &amp;quot;Helvetica Neue&amp;quot;, &amp;quot;Segoe UI&amp;quot;, &amp;quot;Fira Sans&amp;quot;, Roboto, Oxygen, Ubuntu, &amp;quot;Droid Sans&amp;quot;, Arial, sans-serif; background-color: rgba(0, 0, 0, 0.03); transition: border 0.3s ease 0s; cursor: pointer; text-decoration-line: none; font-variant-numeric: inherit; font-variant-east-asian: inherit; font-stretch: inherit; line-height: inherit; letter-spacing: -0.112px; border-bottom: 1px solid rgba(26, 26, 26, 0.26);&quot; class=&quot;fdm__copy-html-content fdm__copy-html-content-link&quot; href=&quot;https://icons8.com/icon/ZoxjA0jZDdFZ/kotlin&quot; target=&quot;_blank&quot;&gt;Kotlin&lt;/a&gt;&lt;span style=&quot;color: rgb(26, 26, 26); font-family: Inter, apple-system, BlinkMacSystemFont, &amp;quot;Helvetica Neue&amp;quot;, &amp;quot;Segoe UI&amp;quot;, &amp;quot;Fira Sans&amp;quot;, Roboto, Oxygen, Ubuntu, &amp;quot;Droid Sans&amp;quot;, Arial, sans-serif; letter-spacing: -0.112px; background-color: rgba(0, 0, 0, 0.03);&quot;&gt; icon by &lt;/span&gt;&lt;a style=&quot;box-sizing: border-box; font-family: Inter, apple-system, BlinkMacSystemFont, &amp;quot;Helvetica Neue&amp;quot;, &amp;quot;Segoe UI&amp;quot;, &amp;quot;Fira Sans&amp;quot;, Roboto, Oxygen, Ubuntu, &amp;quot;Droid Sans&amp;quot;, Arial, sans-serif; background-color: rgba(0, 0, 0, 0.03); transition: border 0.3s ease 0s; cursor: pointer; text-decoration-line: none; font-variant-numeric: inherit; font-variant-east-asian: inherit; font-stretch: inherit; line-height: inherit; letter-spacing: -0.112px; border-bottom: 1px solid rgba(26, 26, 26, 0.26);&quot; class=&quot;fdm__copy-html-content fdm__copy-html-content-link&quot; href=&quot;https://icons8.com/&quot; target=&quot;_blank&quot;&gt;Icons8&lt;/a&gt;&lt;br&gt;&lt;a target=&quot;_blank&quot; href=&quot;https://icons8.com/icon/112796/グーグルマップ&quot;&gt;グーグルマップ&lt;/a&gt; icon by &lt;a target=&quot;_blank&quot; href=&quot;https://icons8.com&quot;&gt;Icons8&lt;br&gt;&lt;/a&gt;&lt;a style=&quot;font: inherit; background-color: transparent; letter-spacing: inherit; box-sizing: border-box; transition: border 0.3s ease 0s; cursor: pointer; text-decoration-line: none; border-bottom: 1px solid rgba(26, 26, 26, 0.26);&quot; class=&quot;fdm__copy-html-content fdm__copy-html-content-link&quot; href=&quot;https://icons8.com/icon/kMtkWq5Srwdj/google-maps&quot; target=&quot;_blank&quot;&gt;Google Maps&lt;/a&gt;&lt;span style=&quot;font-family: Inter, apple-system, BlinkMacSystemFont, &amp;quot;Helvetica Neue&amp;quot;, &amp;quot;Segoe UI&amp;quot;, &amp;quot;Fira Sans&amp;quot;, Roboto, Oxygen, Ubuntu, &amp;quot;Droid Sans&amp;quot;, Arial, sans-serif; background-color: var(--code-background-color,var(--c-transparent-black_100)); color: var(--c-black_900); letter-spacing: -0.008em;&quot;&gt; icon by &lt;/span&gt;&lt;a style=&quot;font: inherit; background-color: transparent; letter-spacing: inherit; box-sizing: border-box; transition: border 0.3s ease 0s; cursor: pointer; text-decoration-line: none; border-bottom: 1px solid rgba(26, 26, 26, 0.26);&quot; class=&quot;fdm__copy-html-content fdm__copy-html-content-link&quot; href=&quot;https://icons8.com/&quot; target=&quot;_blank&quot;&gt;Icons8&lt;br&gt;&lt;/a&gt;&lt;a style=&quot;box-sizing: border-box; font-family: Inter, apple-system, BlinkMacSystemFont, &amp;quot;Helvetica Neue&amp;quot;, &amp;quot;Segoe UI&amp;quot;, &amp;quot;Fira Sans&amp;quot;, Roboto, Oxygen, Ubuntu, &amp;quot;Droid Sans&amp;quot;, Arial, sans-serif; background-color: rgba(0, 0, 0, 0.03); transition: border 0.3s ease 0s; cursor: pointer; text-decoration-line: none; font-variant-numeric: inherit; font-variant-east-asian: inherit; font-stretch: inherit; line-height: inherit; letter-spacing: -0.112px; border-bottom: 1px solid rgba(26, 26, 26, 0.26);&quot; class=&quot;fdm__copy-html-content fdm__copy-html-content-link&quot; href=&quot;https://icons8.com/icon/zfHRZ6i1Wg0U/figma&quot; target=&quot;_blank&quot;&gt;Figma&lt;/a&gt;&lt;span style=&quot;color: rgb(26, 26, 26); font-family: Inter, apple-system, BlinkMacSystemFont, &amp;quot;Helvetica Neue&amp;quot;, &amp;quot;Segoe UI&amp;quot;, &amp;quot;Fira Sans&amp;quot;, Roboto, Oxygen, Ubuntu, &amp;quot;Droid Sans&amp;quot;, Arial, sans-serif; letter-spacing: -0.112px; background-color: rgba(0, 0, 0, 0.03);&quot;&gt; icon by &lt;/span&gt;&lt;a style=&quot;box-sizing: border-box; font-family: Inter, apple-system, BlinkMacSystemFont, &amp;quot;Helvetica Neue&amp;quot;, &amp;quot;Segoe UI&amp;quot;, &amp;quot;Fira Sans&amp;quot;, Roboto, Oxygen, Ubuntu, &amp;quot;Droid Sans&amp;quot;, Arial, sans-serif; background-color: rgba(0, 0, 0, 0.03); transition: border 0.3s ease 0s; cursor: pointer; text-decoration-line: none; font-variant-numeric: inherit; font-variant-east-asian: inherit; font-stretch: inherit; line-height: inherit; letter-spacing: -0.112px; border-bottom: 1px solid rgba(26, 26, 26, 0.26);&quot; class=&quot;fdm__copy-html-content fdm__copy-html-content-link&quot; href=&quot;https://icons8.com/&quot; target=&quot;_blank&quot;&gt;Icons8&lt;/a&gt;&lt;br&gt;&lt;a style=&quot;box-sizing: border-box; font-family: Inter, apple-system, BlinkMacSystemFont, &amp;quot;Helvetica Neue&amp;quot;, &amp;quot;Segoe UI&amp;quot;, &amp;quot;Fira Sans&amp;quot;, Roboto, Oxygen, Ubuntu, &amp;quot;Droid Sans&amp;quot;, Arial, sans-serif; background-color: rgba(0, 0, 0, 0.03); transition: border 0.3s ease 0s; cursor: pointer; text-decoration-line: none; font-variant-numeric: inherit; font-variant-east-asian: inherit; font-stretch: inherit; line-height: inherit; letter-spacing: -0.112px; border-bottom: 1px solid rgba(26, 26, 26, 0.26);&quot; class=&quot;fdm__copy-html-content fdm__copy-html-content-link&quot; href=&quot;https://icons8.com/icon/YWZEnr62tgb1/android-studio&quot; target=&quot;_blank&quot;&gt;Android Studio&lt;/a&gt;&lt;span style=&quot;color: rgb(26, 26, 26); font-family: Inter, apple-system, BlinkMacSystemFont, &amp;quot;Helvetica Neue&amp;quot;, &amp;quot;Segoe UI&amp;quot;, &amp;quot;Fira Sans&amp;quot;, Roboto, Oxygen, Ubuntu, &amp;quot;Droid Sans&amp;quot;, Arial, sans-serif; letter-spacing: -0.112px; background-color: rgba(0, 0, 0, 0.03);&quot;&gt; icon by &lt;/span&gt;&lt;a style=&quot;box-sizing: border-box; font-family: Inter, apple-system, BlinkMacSystemFont, &amp;quot;Helvetica Neue&amp;quot;, &amp;quot;Segoe UI&amp;quot;, &amp;quot;Fira Sans&amp;quot;, Roboto, Oxygen, Ubuntu, &amp;quot;Droid Sans&amp;quot;, Arial, sans-serif; background-color: rgba(0, 0, 0, 0.03); transition: border 0.3s ease 0s; cursor: pointer; text-decoration-line: none; font-variant-numeric: inherit; font-variant-east-asian: inherit; font-stretch: inherit; line-height: inherit; letter-spacing: -0.112px; border-bottom: 1px solid rgba(26, 26, 26, 0.26);&quot; class=&quot;fdm__copy-html-content fdm__copy-html-content-link&quot; href=&quot;https://icons8.com/&quot; target=&quot;_blank&quot;&gt;Icons8&lt;/a&gt;&lt;br&gt;&lt;a style=&quot;box-sizing: border-box; font-family: Inter, apple-system, BlinkMacSystemFont, &amp;quot;Helvetica Neue&amp;quot;, &amp;quot;Segoe UI&amp;quot;, &amp;quot;Fira Sans&amp;quot;, Roboto, Oxygen, Ubuntu, &amp;quot;Droid Sans&amp;quot;, Arial, sans-serif; background-color: rgba(0, 0, 0, 0.03); transition: border 0.3s ease 0s; cursor: pointer; text-decoration-line: none; font-variant-numeric: inherit; font-variant-east-asian: inherit; font-stretch: inherit; line-height: inherit; letter-spacing: -0.112px; border-bottom: 1px solid rgba(26, 26, 26, 0.26);&quot; class=&quot;fdm__copy-html-content fdm__copy-html-content-link&quot; href=&quot;https://icons8.com/icon/44442/%E3%82%B4%E3%83%A9%E3%83%B3&quot; target=&quot;_blank&quot;&gt;ゴラン&lt;/a&gt;&lt;span style=&quot;color: rgb(26, 26, 26); font-family: Inter, apple-system, BlinkMacSystemFont, &amp;quot;Helvetica Neue&amp;quot;, &amp;quot;Segoe UI&amp;quot;, &amp;quot;Fira Sans&amp;quot;, Roboto, Oxygen, Ubuntu, &amp;quot;Droid Sans&amp;quot;, Arial, sans-serif; letter-spacing: -0.112px; background-color: rgba(0, 0, 0, 0.03);&quot;&gt; icon by &lt;/span&gt;&lt;a style=&quot;box-sizing: border-box; font-family: Inter, apple-system, BlinkMacSystemFont, &amp;quot;Helvetica Neue&amp;quot;, &amp;quot;Segoe UI&amp;quot;, &amp;quot;Fira Sans&amp;quot;, Roboto, Oxygen, Ubuntu, &amp;quot;Droid Sans&amp;quot;, Arial, sans-serif; background-color: rgba(0, 0, 0, 0.03); transition: border 0.3s ease 0s; cursor: pointer; text-decoration-line: none; font-variant-numeric: inherit; font-variant-east-asian: inherit; font-stretch: inherit; line-height: inherit; letter-spacing: -0.112px; border-bottom: 1px solid rgba(26, 26, 26, 0.26);&quot; class=&quot;fdm__copy-html-content fdm__copy-html-content-link&quot; href=&quot;https://icons8.com/&quot; target=&quot;_blank&quot;&gt;Icons8&lt;/a&gt;&lt;br&gt;&lt;a style=&quot;box-sizing: border-box; font-family: Inter, apple-system, BlinkMacSystemFont, &amp;quot;Helvetica Neue&amp;quot;, &amp;quot;Segoe UI&amp;quot;, &amp;quot;Fira Sans&amp;quot;, Roboto, Oxygen, Ubuntu, &amp;quot;Droid Sans&amp;quot;, Arial, sans-serif; background-color: rgba(0, 0, 0, 0.03); transition: border 0.3s ease 0s; cursor: pointer; text-decoration-line: none; font-variant-numeric: inherit; font-variant-east-asian: inherit; font-stretch: inherit; line-height: inherit; letter-spacing: -0.112px; border-bottom: 1px solid rgba(26, 26, 26, 0.26);&quot; class=&quot;fdm__copy-html-content fdm__copy-html-content-link&quot; href=&quot;https://icons8.com/icon/22813/%E3%83%87%E3%83%83%E3%82%AB%E3%83%BC&quot; target=&quot;_blank&quot;&gt;デッカー&lt;/a&gt;&lt;span style=&quot;color: rgb(26, 26, 26); font-family: Inter, apple-system, BlinkMacSystemFont, &amp;quot;Helvetica Neue&amp;quot;, &amp;quot;Segoe UI&amp;quot;, &amp;quot;Fira Sans&amp;quot;, Roboto, Oxygen, Ubuntu, &amp;quot;Droid Sans&amp;quot;, Arial, sans-serif; letter-spacing: -0.112px; background-color: rgba(0, 0, 0, 0.03);&quot;&gt; icon by &lt;/span&gt;&lt;a style=&quot;box-sizing: border-box; font-family: Inter, apple-system, BlinkMacSystemFont, &amp;quot;Helvetica Neue&amp;quot;, &amp;quot;Segoe UI&amp;quot;, &amp;quot;Fira Sans&amp;quot;, Roboto, Oxygen, Ubuntu, &amp;quot;Droid Sans&amp;quot;, Arial, sans-serif; background-color: rgba(0, 0, 0, 0.03); transition: border 0.3s ease 0s; cursor: pointer; text-decoration-line: none; font-variant-numeric: inherit; font-variant-east-asian: inherit; font-stretch: inherit; line-height: inherit; letter-spacing: -0.112px; border-bottom: 1px solid rgba(26, 26, 26, 0.26);&quot; class=&quot;fdm__copy-html-content fdm__copy-html-content-link&quot; href=&quot;https://icons8.com/&quot; target=&quot;_blank&quot;&gt;Icons8&lt;/a&gt;&lt;br&gt;&lt;div style=&quot;box-sizing: border-box; font-family: Inter, apple-system, BlinkMacSystemFont, &amp;quot;Helvetica Neue&amp;quot;, &amp;quot;Segoe UI&amp;quot;, &amp;quot;Fira Sans&amp;quot;, Roboto, Oxygen, Ubuntu, &amp;quot;Droid Sans&amp;quot;, Arial, sans-serif; display: flex; flex-flow: row wrap; align-items: center; gap: 16px; margin-top: 0px;&quot; class=&quot;i8-copy-text__buttons&quot;&gt;&lt;button style=&quot;box-sizing: var(--button-box-sizing,border-box); font: var(--button-font,var(--button-font-weight,var(--button-font-weight,600)) var(--button-font-size,var(--button-font-size,14px))/var(--button-font-line-height,var(--button-line-height,20px)) var(--button-font-family,var(--font-family-legacy))); margin: 0px; overflow: visible; appearance: button; cursor: var(--button-cursor-pointer,pointer); border-radius: var(--button-border-radius,4px); text-align: var(--button-text-align,center); letter-spacing: var(--button-letter-spacing,-0.006em); background-image: ; background-position-x: ; background-position-y: ; background-size: ; background-repeat-x: ; background-repeat-y: ; background-attachment: ; background-origin: ; background-clip: ; transition: all 0.2s ease-out 0s; border: var(--button-border-outline,1px solid var(--c-transparent-black_200)); outline: var(--button-outline,none); display: var(--button-display,flex); justify-content: flex-start; align-items: var(--button-align-items,center); position: var(--button-position,relative); padding: var(--button-padding-large,0 var(--spacer-sm)); height: var(--button-height-large,var(--spacer-xl)); width: var(--copy-button-width,auto); --icon-color:var(--copy-text-button-icon-color,var(--c-transparent-black_500)); --button-border-radius:0 4px 4px 0;&quot; class=&quot;i8-copy-text__buttons-copy i8-button--outline i8-button--large i8-button&quot;&gt;&lt;div style=&quot;box-sizing: border-box; position: var(--icon-position,relative); display: flex; width: var(--icon-width,var(--icon-size,1rem)); height: var(--icon-height,var(--icon-size,1rem)); background: rgb(255, 255, 255); fill: var(--icon-color,var(--c-black_900)); margin: var(--button-icon-left-margin,0 6px 0 0); color: rgba(0, 0, 0, 0.9); font-size: 14px; font-weight: 600; letter-spacing: -0.084px; --icon-size:24px;&quot; class=&quot;i8-icon i8-button__icon i8-button__icon--left&quot;&gt;&lt;svg class=&quot;i8-icon-path&quot; preserveAspectRatio=&quot;none&quot; viewBox=&quot;0 0 24 24&quot;&gt;&lt;path style=&quot;height: 100%;&quot; d=&quot;M4 2C2.895 2 2 2.895 2 4V17C2 17.552 2.448 18 3 18C3.552 18 4 17.552 4 17V4H17C17.552 4 18 3.552 18 3C18 2.448 17.552 2 17 2H4ZM8 6C6.895 6 6 6.895 6 8V20C6 21.105 6.895 22 8 22H20C21.105 22 22 21.105 22 20V8C22 6.895 21.105 6 20 6H8ZM8 8H20V20H8V8Z&quot;&gt;&lt;/path&gt;&lt;/svg&gt;&lt;/div&gt;&lt;/button&gt;&lt;/div&gt;&lt;/font&gt;" style="text;whiteSpace=wrap;html=1;fontSize=9;" parent="1" vertex="1">
          <mxGeometry x="-805" y="770" width="490" height="190" as="geometry" />
        </mxCell>
        <mxCell id="jHCnX__sWSKemb0coJZo-21" value="" style="shape=image;verticalLabelPosition=bottom;labelBackgroundColor=default;verticalAlign=top;aspect=fixed;imageAspect=0;image=data:image/svg+xml,PHN2ZyB4bWxucz0iaHR0cDovL3d3dy53My5vcmcvMjAwMC9zdmciIGhlaWdodD0iMTAwcHgiIHdpZHRoPSIxMDBweCIgdmlld0JveD0iMCAwIDEwMCAxMDAiPjxwYXRoIGQ9Ik04Ny4yMTUsNTYuNzFDODguMzUsNTQuNTU1LDg5LDUyLjEwNSw4OSw0OS41YzAtNi42MjEtNC4xNTktMTIuMjU3LTEwLjAwMS0xNC40NzggQzc4Ljk5OSwzNS4wMTUsNzksMzUuMDA4LDc5LDM1YzAtMTEuNTk4LTkuNDAyLTIxLTIxLTIxYy05Ljc4NCwwLTE3Ljk4MSw2LjcwMS0yMC4zMTMsMTUuNzU3QzM2LjIxMSwyOS4yNzIsMzQuNjM4LDI5LDMzLDI5IGMtNy42OTIsMC0xNC4wMjMsNS43OTMtMTQuODksMTMuMjUyQzEyLjkwNiw0My4zNTMsOSw0Ny45NjksOSw1My41QzksNTkuODUxLDE0LjE0OSw2NSwyMC41LDY1YzAuMTc3LDAsMC4zNTItMC4wMTIsMC41MjYtMC4wMjIgQzIxLjAyMiw2NS4xNTMsMjEsNjUuMzI0LDIxLDY1LjVDMjEsNzYuODIyLDMwLjE3OCw4Niw0MS41LDg2YzYuNDM3LDAsMTIuMTc1LTIuOTcyLDE1LjkzNC03LjYxNEM1OS42MTIsODAuNjExLDYyLjY0LDgyLDY2LDgyIGM0LjY1LDAsOC42NzQtMi42NSwxMC42NjYtNi41MThDNzcuNzE4LDc1LjgxNyw3OC44MzcsNzYsODAsNzZjNi4wNzUsMCwxMS00LjkyNSwxMS0xMUM5MSw2MS42ODksODkuNTMsNTguNzI3LDg3LjIxNSw1Ni43MXoiIGZpbGw9IiNjN2VkZTYiLz48cGF0aCBkPSJNNzYuNSw1NC41VjU1aDN2LTAuNWMwLDAsNC4yNDIsMCw1LjUsMGMyLjQ4NSwwLDQuNS0yLjAxNSw0LjUtNC41IGMwLTIuMzMzLTEuNzgyLTQuMjI5LTQuMDU1LTQuNDU1Qzg1LjQ2Nyw0NS4zNjQsODUuNSw0NS4xODcsODUuNSw0NWMwLTIuNDg1LTIuMDE1LTQuNS00LjUtNC41Yy0xLjQzOCwwLTIuNzAzLDAuNjg2LTMuNTI3LDEuNzM2IEM3Ny4zMzMsMzkuNiw3NS4xNzEsMzcuNSw3Mi41LDM3LjVjLTIuNzYxLDAtNSwyLjIzOS01LDVjMCwwLjQ0NiwwLjA3NywwLjg3LDAuMTg3LDEuMjgyQzY3LjA0NSw0My4wMDUsNjYuMDg2LDQyLjUsNjUsNDIuNSBjLTEuNzgxLDAtMy4yMzQsMS4zMzUtMy40NTUsMy4wNTVDNjEuMzY0LDQ1LjUzMyw2MS4xODcsNDUuNSw2MSw0NS41Yy0yLjQ4NSwwLTQuNSwyLjAxNS00LjUsNC41czIuMDE1LDQuNSw0LjUsNC41czkuNSwwLDkuNSwwIEg3Ni41eiIgZmlsbD0iI2ZkZmNlZiIvPjxwYXRoIGQ9Ik03Mi41LDM3Yy0zLjAzMywwLTUuNSwyLjQ2Ny01LjUsNS41YzAsMC4wMTYsMCwwLjAzMSwwLDAuMDQ3QzY2LjM5OCw0Mi4xOTIsNjUuNzEsNDIsNjUsNDIgYy0xLjgzMSwwLTMuNDExLDEuMjYxLTMuODU4LDMuMDA1QzYxLjA5NSw0NS4wMDIsNjEuMDQ4LDQ1LDYxLDQ1Yy0yLjc1NywwLTUsMi4yNDMtNSw1czIuMjQzLDUsNSw1aDE1LjUgYzAuMjc2LDAsMC41LTAuMjI0LDAuNS0wLjVTNzYuNzc2LDU0LDc2LjUsNTRINjFjLTIuMjA2LDAtNC0xLjc5NC00LTRzMS43OTQtNCw0LTRjMC4xMTcsMCwwLjIzLDAuMDE3LDAuMzQzLDAuMDMybDAuMTQxLDAuMDE5IGMwLjAyMSwwLjAwMywwLjA0MSwwLjAwNCwwLjA2MiwwLjAwNGMwLjI0NiwwLDAuNDYyLTAuMTg1LDAuNDk1LTAuNDM3QzYyLjIzMiw0NC4xMjUsNjMuNTA0LDQzLDY1LDQzIGMwLjg4NSwwLDEuNzIzLDAuNDAxLDIuMzAxLDEuMWMwLjA5OCwwLjExOCwwLjI0MSwwLjE4MiwwLjM4NiwwLjE4MmMwLjA3OCwwLDAuMTU2LTAuMDE4LDAuMjI4LTAuMDU2IGMwLjIwOS0wLjEwNywwLjMxNC0wLjM0NiwwLjI1NC0wLjU3M0M2OC4wNTQsNDMuMjE4LDY4LDQyLjg1Miw2OCw0Mi41YzAtMi40ODEsMi4wMTktNC41LDQuNS00LjUgYzIuMzgxLDAsNC4zNDcsMS44NzIsNC40NzQsNC4yNjNjMC4wMTEsMC4yMDgsMC4xNSwwLjM4NywwLjM0OSwwLjQ1YzAuMDUsMC4wMTYsMC4xMDEsMC4wMjQsMC4xNTIsMC4wMjQgYzAuMTUsMCwwLjI5Ni0wLjA2OSwwLjM5Mi0wLjE5MkM3OC42MzgsNDEuNTYzLDc5Ljc3OSw0MSw4MSw0MWMyLjIwNiwwLDQsMS43OTQsNCw0YzAsMC4xMTctMC4wMTcsMC4yMy0wLjAzMiwwLjM0M2wtMC4wMTksMC4xNDEgYy0wLjAxNiwwLjEzNCwwLjAyMiwwLjI2OCwwLjEwNiwwLjM3M2MwLjA4NCwwLjEwNSwwLjIwNywwLjE3MiwwLjM0LDAuMTg1Qzg3LjQ1MSw0Ni4yNDcsODksNDcuOTQ5LDg5LDUwYzAsMi4yMDYtMS43OTQsNC00LDQgaC01LjVjLTAuMjc2LDAtMC41LDAuMjI0LTAuNSwwLjVzMC4yMjQsMC41LDAuNSwwLjVIODVjMi43NTcsMCw1LTIuMjQzLDUtNWMwLTIuMzk3LTEuNjg5LTQuNDEzLTQuMDAzLTQuODc3IEM4NS45OTksNDUuMDgyLDg2LDQ1LjA0MSw4Niw0NWMwLTIuNzU3LTIuMjQzLTUtNS01Yy0xLjE3NiwwLTIuMjkzLDAuNDE2LTMuMTgzLDEuMTY0Qzc3LjIxOSwzOC43Niw3NS4wNTUsMzcsNzIuNSwzN0w3Mi41LDM3eiIgZmlsbD0iIzQ3MmIyOSIvPjxwYXRoIGQ9Ik03MSA0NGMtMS40MDMgMC0yLjYwOS45OTktMi45MTMgMi4zNDFDNjcuNzIgNDYuMTE5IDY3LjMwMSA0NiA2Ni44NzUgNDZjLTEuMjAyIDAtMi4xOTguODk3LTIuMzUzIDIuMDY4QzY0LjMxOSA0OC4wMjIgNjQuMTI2IDQ4IDYzLjkzNyA0OGMtMS41MjkgMC0yLjgxMSAxLjItMi45MTggMi43MzJDNjEuMDEgNTAuODcgNjEuMTE0IDUwLjk5IDYxLjI1MSA1MWMuMDA2IDAgLjAxMiAwIC4wMTggMCAuMTMgMCAuMjQtLjEwMS4yNDktLjIzMi4wODktMS4yNzEgMS4xNTEtMi4yNjggMi40MTktMi4yNjguMjI5IDAgLjQ3LjA0Mi43MzguMTI3LjAyMi4wMDcuMDQ1LjAxLjA2Ny4wMS4wNTUgMCAuMTEtLjAyLjE1Ni0uMDU0QzY0Ljk2MiA0OC41MzcgNjUgNDguNDU1IDY1IDQ4LjM3NWMwLTEuMDM0Ljg0MS0xLjg3NSAxLjg3NS0xLjg3NS40NDcgMCAuODg1LjE2OCAxLjIzMS40NzMuMDQ3LjA0MS4xMDYuMDYzLjE2NS4wNjMuMDMyIDAgLjA2My0uMDA2LjA5My0uMDE5LjA4OC0uMDM1LjE0OC0uMTE3LjE1NS0uMjEyQzY4LjYyMyA0NS41MTIgNjkuNzEyIDQ0LjUgNzEgNDQuNWMuMjA4IDAgLjQyNS4wMzQuNjgyLjEwNy4wMjMuMDA3LjA0Ny4wMS4wNy4wMS4xMDkgMCAuMjA3LS4wNzMuMjM5LS4xODIuMDM4LS4xMzMtLjAzOS0uMjcxLS4xNzItLjMwOUM3MS41MTcgNDQuMDQgNzEuMjU2IDQ0IDcxIDQ0TDcxIDQ0ek04NC44ODMgNDUuNWMtMS4zMjYgMC0yLjUwOC44OTctMi44NzQgMi4xODItLjAzOC4xMzMuMDM5LjI3MS4xNzIuMzA5QzgyLjIwNSA0Ny45OTcgODIuMjI4IDQ4IDgyLjI1IDQ4Yy4xMDkgMCAuMjA5LS4wNzIuMjQtLjE4MkM4Mi43OTUgNDYuNzQ4IDgzLjc3OSA0NiA4NC44ODMgNDZjLjExNyAwIC4yMy4wMTQuMzQyLjAyOS4wMTIuMDAyLjAyMy4wMDMuMDM1LjAwMy4xMjEgMCAuMjI5LS4wOTIuMjQ2LS4yMTcuMDE5LS4xMzctLjA3Ny0uMjYzLS4yMTQtLjI4MUM4NS4xNTggNDUuNTE2IDg1LjAyMiA0NS41IDg0Ljg4MyA0NS41TDg0Ljg4MyA0NS41eiIgZmlsbD0iIzQ3MmIyOSIvPjxwYXRoIGQ9Ik00Ni41IDIzaC0xMGMtLjI3NiAwLS41LS4yMjQtLjUtLjVzLjIyNC0uNS41LS41aDEwYy4yNzYgMCAuNS4yMjQuNS41UzQ2Ljc3NyAyMyA0Ni41IDIzek00OS41IDIzaC0xYy0uMjc2IDAtLjUtLjIyNC0uNS0uNXMuMjI0LS41LjUtLjVoMWMuMjc2IDAgLjUuMjI0LjUuNVM0OS43NzcgMjMgNDkuNSAyM3pNNTQuNDkxIDI1SDQ1LjVjLS4yNzYgMC0uNS0uMjI0LS41LS41cy4yMjQtLjUuNS0uNWg4Ljk5MWMuMjc2IDAgLjUuMjI0LjUuNVM1NC43NjcgMjUgNTQuNDkxIDI1ek00My41IDI1aC0xYy0uMjc2IDAtLjUtLjIyNC0uNS0uNXMuMjI0LS41LjUtLjVoMWMuMjc2IDAgLjUuMjI0LjUuNVM0My43NzcgMjUgNDMuNSAyNXpNNDAuNSAyNWgtMmMtLjI3NiAwLS41LS4yMjQtLjUtLjVzLjIyNC0uNS41LS41aDJjLjI3NiAwIC41LjIyNC41LjVTNDAuNzc3IDI1IDQwLjUgMjV6TTQ2LjUgMjdoLTJjLS4yNzYgMC0uNS0uMjI0LS41LS41cy4yMjQtLjUuNS0uNWgyYy4yNzYgMCAuNS4yMjQuNS41UzQ2Ljc3NiAyNyA0Ni41IDI3ek00OS41IDE4Yy0uMTc3IDAtLjgyMyAwLTEgMC0uMjc2IDAtLjUuMjI0LS41LjUgMCAuMjc2LjIyNC41LjUuNS4xNzcgMCAuODIzIDAgMSAwIC4yNzYgMCAuNS0uMjI0LjUtLjVDNTAgMTguMjI0IDQ5Ljc3NiAxOCA0OS41IDE4ek00OS41IDIwYy0uMTc3IDAtNC44MjMgMC01IDAtLjI3NiAwLS41LjIyNC0uNS41IDAgLjI3Ni4yMjQuNS41LjUuMTc3IDAgNC44MjMgMCA1IDAgLjI3NiAwIC41LS4yMjQuNS0uNUM1MCAyMC4yMjQgNDkuNzc2IDIwIDQ5LjUgMjB6TTU0LjUgMjJjLS4xNzcgMC0yLjgyMyAwLTMgMC0uMjc2IDAtLjUuMjI0LS41LjUgMCAuMjc2LjIyNC41LjUuNS4xNzcgMCAyLjgyMyAwIDMgMCAuMjc2IDAgLjUtLjIyNC41LS41QzU1IDIyLjIyNCA1NC43NzYgMjIgNTQuNSAyMnpNODUuNSA2NWgtMTBjLS4yNzYgMC0uNS0uMjI0LS41LS41cy4yMjQtLjUuNS0uNWgxMGMuMjc2IDAgLjUuMjI0LjUuNVM4NS43NzYgNjUgODUuNSA2NXpNODkuNSA2NWgtMmMtLjI3NiAwLS41LS4yMjQtLjUtLjVzLjIyNC0uNS41LS41aDJjLjI3NiAwIC41LjIyNC41LjVTODkuNzc2IDY1IDg5LjUgNjV6TTk0LjUgNjdoLTEwYy0uMjc2IDAtLjUtLjIyNC0uNS0uNXMuMjI0LS41LjUtLjVoMTBjLjI3NiAwIC41LjIyNC41LjVTOTQuNzc3IDY3IDk0LjUgNjd6TTgyLjUgNjdoLTFjLS4yNzYgMC0uNS0uMjI0LS41LS41cy4yMjQtLjUuNS0uNWgxYy4yNzYgMCAuNS4yMjQuNS41UzgyLjc3NiA2NyA4Mi41IDY3ek03OS40NyA2N0g3Ny41Yy0uMjc2IDAtLjUtLjIyNC0uNS0uNXMuMjI0LS41LjUtLjVoMS45N2MuMjc2IDAgLjUuMjI0LjUuNVM3OS43NDYgNjcgNzkuNDcgNjd6TTg4LjUgNjNoLTVjLS4yNzYgMC0uNS0uMjI0LS41LS41cy4yMjQtLjUuNS0uNWg1Yy4yNzYgMCAuNS4yMjQuNS41Uzg4Ljc3NyA2MyA4OC41IDYzek04NS41IDY5aC0yYy0uMjc2IDAtLjUtLjIyNC0uNS0uNXMuMjI0LS41LjUtLjVoMmMuMjc2IDAgLjUuMjI0LjUuNVM4NS43NzYgNjkgODUuNSA2OXoiIGZpbGw9IiNmZmYiLz48Zz48cGF0aCBkPSJNMzYuOTU3LDczLjNjLTMuNDUsMC02LjI1Ni0yLjgwNy02LjI1Ni02LjI1NlY0MC45NTZjMC0zLjQ0OSwyLjgwNy02LjI1Niw2LjI1Ni02LjI1NmgyNi4wODcgYzMuNDQ5LDAsNi4yNTYsMi44MDcsNi4yNTYsNi4yNTZ2MjYuMDg4YzAsMy40NDktMi44MDcsNi4yNTYtNi4yNTYsNi4yNTZIMzYuOTU3eiIgZmlsbD0iIzY3YmE4YyIvPjxwYXRoIGQ9Ik02My4wNDMsMzUuNGMzLjA2NCwwLDUuNTU3LDIuNDkzLDUuNTU3LDUuNTU3djI2LjA4N2MwLDMuMDY0LTIuNDkzLDUuNTU3LTUuNTU3LDUuNTU3SDM2Ljk1NyBjLTMuMDY0LDAtNS41NTctMi40OTMtNS41NTctNS41NTdWNDAuOTU3YzAtMy4wNjQsMi40OTMtNS41NTcsNS41NTctNS41NTdINjMuMDQzIE02My4wNDMsMzRIMzYuOTU3QzMzLjEzLDM0LDMwLDM3LjEzLDMwLDQwLjk1NyB2MjYuMDg3QzMwLDcwLjg3LDMzLjEzLDc0LDM2Ljk1Nyw3NGgyNi4wODdDNjYuODcsNzQsNzAsNzAuODcsNzAsNjcuMDQzVjQwLjk1N0M3MCwzNy4xMyw2Ni44NywzNCw2My4wNDMsMzRMNjMuMDQzLDM0eiIgZmlsbD0iIzQ3MmIyOSIvPjwvZz48Zz48cGF0aCBkPSJNNjUuNzQ5LDUyLjE2M2MtMC4yNzYsMC0wLjUtMC4yMjQtMC41LTAuNXYtMy4zM2MwLTAuMjc2LDAuMjI0LTAuNSwwLjUtMC41czAuNSwwLjIyNCwwLjUsMC41djMuMzMgQzY2LjI0OSw1MS45MzksNjYuMDI1LDUyLjE2Myw2NS43NDksNTIuMTYzeiIgZmlsbD0iIzQ3MmIyOSIvPjwvZz48Zz48cGF0aCBkPSJNNjUuNzQ5LDQ2LjI1NWMtMC4yNzYsMC0wLjUtMC4yMjQtMC41LTAuNXYtMS43MTljMC0wLjI3NiwwLjIyNC0wLjUsMC41LTAuNXMwLjUsMC4yMjQsMC41LDAuNSB2MS43MTlDNjYuMjQ5LDQ2LjAzMSw2Ni4wMjUsNDYuMjU1LDY1Ljc0OSw0Ni4yNTV6IiBmaWxsPSIjNDcyYjI5Ii8+PC9nPjxnPjxwYXRoIGQ9Ik01MC4yODEsNTcuODkzYzAsMC0xMC40NzgsMTAuMDY2LTE0LjU5NywxNC43ODljMC40MTEsMC4wOTcsMC44MzcsMC4xNTMsMS4yNzcsMC4xNTNoMjUuNzggYzAuNjg5LDAsMS4zNDYtMC4xMzEsMS45NTYtMC4zNkM2MC40NTksNjcuNjcxLDUwLjI4MSw1Ny44OTMsNTAuMjgxLDU3Ljg5M3oiIGZpbGw9IiMzZTdiZjEiLz48cGF0aCBkPSJNNjIuNzQxLDczLjA4NWgtMjUuNzhjLTAuNDM3LDAtMC44ODYtMC4wNTQtMS4zMzQtMC4xNTlsLTAuNDA0LTAuMDk1bDAuMjcyLTAuMzEzIGM0LjA3OC00LjY3NywxNC41MDctMTQuNzA0LDE0LjYxMi0xNC44MDZsMC4xNzMtMC4xNjZsMC4xNzMsMC4xNjZjMC4xMDIsMC4wOTksMTAuMjM0LDkuODQsMTQuNDMsMTQuNTk4bDAuMjQsMC4yNzFsLTAuMzQsMC4xMjggQzY0LjEyMSw3Mi45NTksNjMuNDM0LDczLjA4NSw2Mi43NDEsNzMuMDg1eiBNMzYuMTYsNzIuNTIxYzAuMjcsMC4wNDIsMC41MzksMC4wNjMsMC44MDIsMC4wNjNoMjUuNzggYzAuNTEyLDAsMS4wMjEtMC4wNzYsMS41MTktMC4yMjZjLTQuMDAzLTQuNDc4LTEyLjY0Ni0xMi44MzQtMTMuOTc5LTE0LjExOUM0OC45MzMsNTkuNTQxLDQwLjA5NSw2OC4wODYsMzYuMTYsNzIuNTIxeiIgZmlsbD0iIzQ3MmIyOSIvPjwvZz48Zz48cGF0aCBkPSJNNDcuMzgxLDU3LjI0NWwxNi4wMzMsMTUuNTc5YzEuOTE2LTAuMDcyLDMuNTk0LTEuMDU0LDQuNTg2LTIuNTE3TDUwLjk2OSw1My43NThMNDcuMzgxLDU3LjI0NXoiIGZpbGw9IiNmZmZlZjQiLz48cGF0aCBkPSJNNjMuMzE2LDczLjA3OEw0Ny4wMjIsNTcuMjQ1bDMuOTQ3LTMuODM2bDE3LjM1NSwxNi44NjRsLTAuMTE3LDAuMTc0IGMtMS4wNjUsMS41NzItMi44NTQsMi41NTQtNC43ODMsMi42MjdMNjMuMzE2LDczLjA3OHogTTQ3Ljc0LDU3LjI0NWwxNS43NzEsMTUuMzI0YzEuNjU5LTAuMDk0LDMuMTk0LTAuOTE5LDQuMTYyLTIuMjMyIGwtMTYuNzA0LTE2LjIzTDQ3Ljc0LDU3LjI0NXoiIGZpbGw9IiM0NzJiMjkiLz48L2c+PGc+PHBhdGggZD0iTTUyLjQzLDU1Ljc0NWMwLDAsMTAuNjQ4LDEwLjY0MSwxNS41MTgsMTQuNjkyQzY4LjYwOSw2OS41MjksNjksNjguNDI4LDY5LDY3LjIzOXYtMjUuNzggYzAtMC4zOTQtMC4wNDQtMC43NzgtMC4xMjUtMS4xNDlDNjQuNjE1LDQzLjU2Nyw1Mi40Myw1NS43NDUsNTIuNDMsNTUuNzQ1eiIgZmlsbD0iI2JlYmFjYiIvPjxwYXRoIGQ9Ik02Ny45OTIsNzAuNzk5bC0wLjIwNS0wLjE3Yy00LjgyMi00LjAxMS0xNS40MjgtMTQuNjAxLTE1LjUzNC0xNC43MDdsLTAuMTc3LTAuMTc3bDAuMTc3LTAuMTc3IGMwLjEyMi0wLjEyMiwxMi4yNDYtMTIuMjI3LDE2LjQ3LTE1LjQ1N2wwLjMxMy0wLjIzOWwwLjA4NCwwLjM4NGMwLjA4NywwLjM5NywwLjEzMSwwLjgwMywwLjEzMSwxLjIwM3YyNS43OCBjMCwxLjItMC4zODEsMi4zNTYtMS4xMDEsMy4zNDVMNjcuOTkyLDcwLjc5OXogTTUyLjc4NCw1NS43NDVjMS4zOSwxLjM4NSwxMC41NzIsMTAuNTAyLDE1LjExMywxNC4zMjQgYzAuNTU5LTAuODUyLDAuODUzLTEuODI0LDAuODUzLTIuODN2LTI1Ljc4YzAtMC4yMzEtMC4wMTctMC40NjUtMC4wNDgtMC42OTdDNjQuNTQzLDQ0LjA2Niw1NC4yNjMsNTQuMjcyLDUyLjc4NCw1NS43NDV6IiBmaWxsPSIjNDcyYjI5Ii8+PC9nPjxnPjxwYXRoIGQ9Ik0zNi42OTIsNzIuODIybDMxLjYzMy0zMS42MzNjLTAuMDg5LTEuODU0LTEuMDgtMy40NzQtMi41NDgtNC40MjZsLTMzLjUxLDMzLjUxIEMzMy4yMTgsNzEuNzQxLDM0LjgzNyw3Mi43MzMsMzYuNjkyLDcyLjgyMnoiIGZpbGw9IiNmZGU3NTEiLz48cGF0aCBkPSJNMzYuNzksNzMuMDc2bC0wLjExMS0wLjAwNWMtMS44NzItMC4wOS0zLjYwMS0xLjA4NS00LjYyMy0yLjY2MmwtMC4xMS0wLjE3bDAuMTQzLTAuMTQzIGwzMy42NTMtMzMuNjU0bDAuMTcsMC4xMWMxLjU3NywxLjAyMywyLjU3MiwyLjc1MiwyLjY2Miw0LjYyNGwwLjAwNSwwLjExTDM2Ljc5LDczLjA3NnogTTMyLjU4OSw3MC4zMDUgYzAuOTI1LDEuMzE1LDIuNDAyLDIuMTUsNC4wMDUsMi4yNjFsMzEuNDc1LTMxLjQ3NWMtMC4xMS0xLjYwMy0wLjk0NS0zLjA4LTIuMjYxLTQuMDA2TDMyLjU4OSw3MC4zMDV6IiBmaWxsPSIjNDcyYjI5Ii8+PC9nPjxnPjxwYXRoIGQ9Ik00MC45ODEsNDQuMzM5djIuMjU3aDMuMjE4Yy0wLjQyNCwxLjM2OC0xLjU2NSwyLjM0Ni0zLjIxOCwyLjM0NmMtMS45NjgsMC0zLjU2Mi0xLjU5NC0zLjU2Mi0zLjU2MiBjMC0xLjk3MiwxLjU5NC0zLjU2NywzLjU2Mi0zLjU2N2MwLjg4NSwwLDEuNjk1LDAuMzI3LDIuMzE2LDAuODZsMS42NjItMS42NjJjLTEuMDQ5LTAuOTU3LTIuNDQyLTEuNTQtMy45NzgtMS41NCBjLTMuMjY0LDAtNS45MDgsMi42NDgtNS45MDgsNS45MDhzMi42NDMsNS45MDgsNS45MDgsNS45MDhjNS4xNjksMCw2LjA1NS00LjYzNyw1LjU2OC02Ljk0TDQwLjk4MSw0NC4zMzl6IiBmaWxsPSIjZmZmIi8+PHBhdGggZD0iTTQwLjk4MSw1MS41MzdjLTMuMzk2LDAtNi4xNTgtMi43NjMtNi4xNTgtNi4xNThzMi43NjItNi4xNTcsNi4xNTgtNi4xNTcgYzEuNTM5LDAsMy4wMTIsMC41NjksNC4xNDYsMS42MDRsMC4xOTMsMC4xNzZsLTIuMDEsMi4wMTJsLTAuMTc2LTAuMTUxYy0wLjYwMS0wLjUxNi0xLjM2Ni0wLjgtMi4xNTMtMC44IGMtMS44MjYsMC0zLjMxMiwxLjQ4Ny0zLjMxMiwzLjMxNmMwLDEuODI2LDEuNDg2LDMuMzEzLDMuMzEyLDMuMzEzYzEuMzI2LDAsMi4zNzQtMC42ODQsMi44NjItMS44NDZoLTMuMTEydi0yLjc1N2w2LjAyMSwwLjAwOCBsMC4wNDIsMC4xOThjMC4zMTYsMS40OTUsMC4wNjQsMy43MDgtMS4yMSw1LjI4QzQ0LjUyOCw1MC44NzcsNDIuOTc5LDUxLjUzNyw0MC45ODEsNTEuNTM3eiBNNDAuOTgxLDM5LjcyMiBjLTMuMTIsMC01LjY1OCwyLjUzOC01LjY1OCw1LjY1N2MwLDMuMTIsMi41MzgsNS42NTgsNS42NTgsNS42NThjMS44NCwwLDMuMjU4LTAuNTk4LDQuMjE0LTEuNzc3IGMxLjExNi0xLjM3NywxLjM3Ny0zLjI5MywxLjE0Ny00LjY2M2wtNS4xMTEtMC4wMDh2MS43NTdoMy4zMDhsLTAuMTAxLDAuMzI0Yy0wLjQ4OSwxLjU3OS0xLjc4MiwyLjUyMS0zLjQ1OCwyLjUyMSBjLTIuMTAyLDAtMy44MTItMS43MS0zLjgxMi0zLjgxM2MwLTIuMTA0LDEuNzEtMy44MTYsMy44MTItMy44MTZjMC44MywwLDEuNjM3LDAuMjczLDIuMjk4LDAuNzc0bDEuMzEzLTEuMzEzIEM0My41OCw0MC4xODIsNDIuMzA3LDM5LjcyMiw0MC45ODEsMzkuNzIyeiIgZmlsbD0iIzQ3MmIyOSIvPjwvZz48Zz48cGF0aCBkPSJNNjIuMjU4LDI4LjQ2MWMtNS45MzMsMC0xMC43NDIsNC44MDktMTAuNzQyLDEwLjc0MmMwLDcuMzE4LDguMjMzLDkuOTg2LDEwLjAyNCwyMS4zMjQgYzAuMTE3LDAuNzMsMC4xMjYsMS4yMzQsMC43MTgsMS4yMzRzMC42LTAuNTA0LDAuNzE4LTEuMjM0QzY0Ljc2Nyw0OS4xODksNzMsNDYuNTIxLDczLDM5LjIwMyBDNzMsMzMuMjcsNjguMTkxLDI4LjQ2MSw2Mi4yNTgsMjguNDYxeiIgZmlsbD0iI2VhNDk4OSIvPjxwYXRoIGQ9Ik02Mi4yNTgsNjIuMjYxYy0wLjk2MSwwLTEuMDg3LTAuODM1LTEuMTc4LTEuNDQ0bC0wLjAzMy0wLjIxMSBjLTAuOTIyLTUuODM2LTMuNTg3LTkuMzI1LTUuOTM4LTEyLjQwM2MtMi4xOTYtMi44NzYtNC4wOTMtNS4zNTktNC4wOTMtOC45OTljMC02LjE5OSw1LjA0My0xMS4yNDIsMTEuMjQxLTExLjI0MiBjNi4xOTksMCwxMS4yNDIsNS4wNDMsMTEuMjQyLDExLjI0MmMwLDMuNjQtMS44OTYsNi4xMjMtNC4wOTMsOC45OTljLTIuMzUxLDMuMDc4LTUuMDE2LDYuNTY3LTUuOTM4LDEyLjQwMmwtMC4wMzMsMC4yMTEgQzYzLjM0Niw2MS40MjYsNjMuMjIsNjIuMjYxLDYyLjI1OCw2Mi4yNjF6IE02Mi4yNTgsMjguOTYxYy01LjY0NywwLTEwLjI0MSw0LjU5NS0xMC4yNDEsMTAuMjQyYzAsMy4zMDIsMS44MDIsNS42NiwzLjg4OCw4LjM5MiBjMi40MjMsMy4xNzMsNS4xNjksNi43NjksNi4xMzEsMTIuODU0bDAuMDMzLDAuMjJjMC4wMzQsMC4yMjQsMC4wOCwwLjUzLDAuMTM2LDAuNTk4bDAuMTI1LTAuMDEzIGMwLjAzOS0wLjA1NSwwLjA4NS0wLjM2MSwwLjExOS0wLjU4NmwwLjAzMy0wLjIyYzAuOTYyLTYuMDg0LDMuNzA4LTkuNjgsNi4xMzEtMTIuODUzYzIuMDg2LTIuNzMxLDMuODg4LTUuMDksMy44ODgtOC4zOTIgQzcyLjUsMzMuNTU2LDY3LjkwNSwyOC45NjEsNjIuMjU4LDI4Ljk2MXoiIGZpbGw9IiM0NzJiMjkiLz48L2c+PGc+PHBhdGggZD0iTTY2LjAxOCwzOS4yMDNjMCwyLjA3Ny0xLjY4MywzLjc2LTMuNzYsMy43NnMtMy43Ni0xLjY4My0zLjc2LTMuNzZjMC0yLjA3NywxLjY4My0zLjc2LDMuNzYtMy43NiBTNjYuMDE4LDM3LjEyNiw2Ni4wMTgsMzkuMjAzeiIgZmlsbD0iI2ZmZmVmNCIvPjxwYXRoIGQ9Ik02Mi4yNTgsNDMuNDYyYy0yLjM0OSwwLTQuMjU5LTEuOTEtNC4yNTktNC4yNTlzMS45MS00LjI2LDQuMjU5LTQuMjZzNC4yNiwxLjkxMSw0LjI2LDQuMjYgUzY0LjYwNiw0My40NjIsNjIuMjU4LDQzLjQ2MnogTTYyLjI1OCwzNS45NDNjLTEuNzk3LDAtMy4yNTksMS40NjItMy4yNTksMy4yNmMwLDEuNzk3LDEuNDYyLDMuMjU5LDMuMjU5LDMuMjU5IGMxLjc5OCwwLDMuMjYtMS40NjIsMy4yNi0zLjI1OUM2NS41MTgsMzcuNDA1LDY0LjA1NiwzNS45NDMsNjIuMjU4LDM1Ljk0M3oiIGZpbGw9IiM0NzJiMjkiLz48L2c+PGc+PHBhdGggZD0iTTYzLjEwOCw1MS43NDljLTAuMDc5LDAtMC4xNTgtMC4wMTktMC4yMzItMC4wNThjLTAuMjQ0LTAuMTI4LTAuMzM5LTAuNDMtMC4yMS0wLjY3NSBjMS4zNDYtMi41NjYsMy44OS01Ljg3NSw0Ljk3Ny03LjI4N2MwLjI0MS0wLjMxMywwLjQwNi0wLjUyNywwLjQ2MS0wLjYwOGMwLjc4Ni0xLjE2MywxLjIwMS0yLjUyMywxLjIwMS0zLjkzMiBjMC0wLjI3NiwwLjIyNC0wLjUsMC41LTAuNXMwLjUsMC4yMjQsMC41LDAuNWMwLDEuNjA4LTAuNDc1LDMuMTYyLTEuMzczLDQuNDkyYy0wLjA1OSwwLjA4Ny0wLjIzNiwwLjMxOC0wLjQ5NiwwLjY1NyBjLTEuMDcxLDEuMzkzLTMuNTc5LDQuNjUyLTQuODg1LDcuMTQzQzYzLjQ2Miw1MS42NTEsNjMuMjg4LDUxLjc0OSw2My4xMDgsNTEuNzQ5eiIgZmlsbD0iIzQ3MmIyOSIvPjwvZz48Zz48cGF0aCBkPSJNNjkuNTMxLDM3LjY3NGMtMC4yMiwwLTAuNDIxLTAuMTQ2LTAuNDgxLTAuMzY2Yy0wLjE2NS0wLjU5My0wLjQwNi0xLjE2MS0wLjcxOC0xLjY4OSBjLTAuMzMzLTAuNTY0LTAuNzQ2LTEuMDgxLTEuMjI2LTEuNTM2Yy0wLjItMC4xOS0wLjIwOS0wLjUwNy0wLjAyLTAuNzA3YzAuMTkxLTAuMiwwLjUwOC0wLjIwNiwwLjcwNy0wLjAyIGMwLjU0OCwwLjUyLDEuMDE5LDEuMTA5LDEuMzk5LDEuNzU1YzAuMzU2LDAuNjA0LDAuNjMyLDEuMjUzLDAuODE5LDEuOTNjMC4wNzQsMC4yNjctMC4wODIsMC41NDItMC4zNDgsMC42MTUgQzY5LjYyLDM3LjY2OCw2OS41NzUsMzcuNjc0LDY5LjUzMSwzNy42NzR6IiBmaWxsPSIjNDcyYjI5Ii8+PC9nPjxnPjxwYXRoIGQ9Ik02NS43MzMsMzIuOTk3Yy0wLjA3OCwwLTAuMTU2LTAuMDE4LTAuMjI5LTAuMDU2Yy0xLjAwNi0wLjUyMS0yLjA5NC0wLjc4NS0zLjIzMi0wLjc4NSBjLTAuMjc2LDAtMC41LTAuMjI0LTAuNS0wLjVzMC4yMjQtMC41LDAuNS0wLjVjMS4yODIsMCwyLjU1OSwwLjMxMSwzLjY5MSwwLjg5NmMwLjI0NiwwLjEyNywwLjM0MiwwLjQyOSwwLjIxNSwwLjY3NCBDNjYuMDg5LDMyLjg5OCw2NS45MTQsMzIuOTk3LDY1LjczMywzMi45OTd6IiBmaWxsPSIjNDcyYjI5Ii8+PC9nPjxnPjxwYXRoIGQ9Ik0zNC41LDYzLjVjMCwwLDEuNTY3LDAsMy41LDBzMy41LTEuNTY3LDMuNS0zLjVjMC0xLjc4MS0xLjMzNS0zLjIzNC0zLjA1NS0zLjQ1NSBDMzguNDczLDU2LjM2NiwzOC41LDU2LjE4NywzOC41LDU2YzAtMS45MzMtMS41NjctMy41LTMuNS0zLjVjLTEuMDMyLDAtMS45NSwwLjQ1NS0yLjU5LDEuMTY1IGMtMC4zODQtMS44MDgtMS45ODctMy4xNjUtMy45MS0zLjE2NWMtMi4yMDksMC00LDEuNzkxLTQsNGMwLDAuMTkxLDAuMDMsMC4zNzQsMC4wNTYsMC41NThDMjQuMTI4LDU0LjcxNCwyMy41OTIsNTQuNSwyMyw1NC41IGMtMS4yMjgsMC0yLjI0NSwwLjg4Ny0yLjQ1NSwyLjA1NUMyMC4zNjYsNTYuNTI3LDIwLjE4Nyw1Ni41LDIwLDU2LjVjLTEuOTMzLDAtMy41LDEuNTY3LTMuNSwzLjVzMS41NjcsMy41LDMuNSwzLjVzNy41LDAsNy41LDAgVjY0aDdWNjMuNXoiIGZpbGw9IiNmZGZjZWYiLz48cGF0aCBkPSJNMzYuMjUgNTlDMzYuMTEyIDU5IDM2IDU4Ljg4OCAzNiA1OC43NWMwLTEuMjIzLjk5NS0yLjIxOCAyLjIxOC0yLjIxOC4wMzQuMDA5LjczNy0uMDAxIDEuMjQ0LjEzNi4xMzMuMDM2LjIxMi4xNzMuMTc2LjMwNi0uMDM2LjEzNC0uMTczLjIxMy0uMzA2LjE3Ni0uNDQ0LS4xMi0xLjEtLjEyLTEuMTEzLS4xMTgtLjk0OCAwLTEuNzE5Ljc3MS0xLjcxOSAxLjcxOEMzNi41IDU4Ljg4OCAzNi4zODggNTkgMzYuMjUgNTl6TTI5LjUgNjNBLjUuNSAwIDEgMCAyOS41IDY0IC41LjUgMCAxIDAgMjkuNSA2M3oiIGZpbGw9IiM0NzJiMjkiLz48cGF0aCBkPSJNMzgsNjRoLTMuNWMtMC4yNzYsMC0wLjUtMC4yMjQtMC41LTAuNXMwLjIyNC0wLjUsMC41LTAuNUgzOGMxLjY1NCwwLDMtMS4zNDYsMy0zIGMwLTEuNDk2LTEuMTI1LTIuNzY4LTIuNjE4LTIuOTU5Yy0wLjEzNC0wLjAxOC0wLjI1NS0wLjA4OC0wLjMzNi0wLjE5NnMtMC4xMTUtMC4yNDQtMC4wOTQtMC4zNzdDMzcuOTc1LDU2LjMxNCwzOCw1Ni4xNiwzOCw1NiBjMC0xLjY1NC0xLjM0Ni0zLTMtM2MtMC44NSwwLTEuNjM4LDAuMzU1LTIuMjE5LDFjLTAuMTI1LDAuMTM5LTAuMzIxLDAuMTk4LTAuNSwwLjE0OGMtMC4xODItMC4wNDktMC4zMjEtMC4xOTUtMC4zNi0wLjM3OSBDMzEuNTgsNTIuMTY1LDMwLjE0MSw1MSwyOC41LDUxYy0xLjkzLDAtMy41LDEuNTctMy41LDMuNWMwLDAuMTQzLDAuMDIxLDAuMjgsMC4wNDEsMC40MThjMC4wMjksMC4yMDMtMC4wNjMsMC40MzgtMC4yNDIsMC41NCBjLTAuMTc5LDAuMTAyLTAuMzk2LDAuMTE4LTAuNTU2LTAuMDFDMjMuODc4LDU1LjE1NSwyMy40NDksNTUsMjMsNTVjLTAuOTY2LDAtMS43OTIsMC42OTEtMS45NjMsMS42NDQgYy0wLjA0OCwwLjI2Ny0wLjI5NiwwLjQ0Ni0wLjU2OSwwLjQwNUMyMC4zMTQsNTcuMDI1LDIwLjE2LDU3LDIwLDU3Yy0xLjY1NCwwLTMsMS4zNDYtMywzczEuMzQ2LDMsMywzaDcuNSBjMC4yNzYsMCwwLjUsMC4yMjQsMC41LDAuNVMyNy43NzYsNjQsMjcuNSw2NEgyMGMtMi4yMDYsMC00LTEuNzk0LTQtNHMxLjc5NC00LDQtNGMwLjA1OSwwLDAuMTE2LDAuMDAyLDAuMTc0LDAuMDA2IEMyMC41ODgsNTQuODIsMjEuNzExLDU0LDIzLDU0YzAuMzQ5LDAsMC42ODksMC4wNjEsMS4wMTEsMC4xOEMyNC4xNzYsNTEuODQ3LDI2LjEyNiw1MCwyOC41LDUwYzEuODMxLDAsMy40NjYsMS4xMjcsNC4xNTMsMi43NzQgQzMzLjMzMyw1Mi4yNzYsMzQuMTU1LDUyLDM1LDUyYzIuMjA2LDAsNCwxLjc5NCw0LDRjMCwwLjA0OC0wLjAwMSwwLjA5NS0wLjAwNCwwLjE0MkM0MC43MzksNTYuNTksNDIsNTguMTY5LDQyLDYwIEM0Miw2Mi4yMDYsNDAuMjA2LDY0LDM4LDY0eiIgZmlsbD0iIzQ3MmIyOSIvPjxwYXRoIGQ9Ik0zMi41LDYzYy0wLjE1OSwwLTAuODQxLDAtMSwwYy0wLjI3NiwwLTAuNSwwLjIyNC0wLjUsMC41YzAsMC4yNzYsMC4yMjQsMC41LDAuNSwwLjUgYzAuMTU5LDAsMC44NDEsMCwxLDBjMC4yNzYsMCwwLjUtMC4yMjQsMC41LTAuNUMzMyw2My4yMjQsMzIuNzc2LDYzLDMyLjUsNjN6IiBmaWxsPSIjNDcyYjI5Ii8+PC9nPjwvc3ZnPg==;" parent="1" vertex="1">
          <mxGeometry x="-355" y="225" width="130" height="130" as="geometry" />
        </mxCell>
        <mxCell id="jHCnX__sWSKemb0coJZo-25" value="Google Static Maps API" style="text;html=1;resizable=0;autosize=1;align=left;verticalAlign=middle;points=[];fillColor=none;strokeColor=none;rounded=0;fontSize=10;labelBorderColor=none;spacing=0;" parent="1" vertex="1">
          <mxGeometry x="-350" y="340" width="130" height="20" as="geometry" />
        </mxCell>
        <mxCell id="jHCnX__sWSKemb0coJZo-26" value="画像を提供" style="text;html=1;resizable=0;autosize=1;align=center;verticalAlign=middle;points=[];fillColor=none;strokeColor=none;rounded=0;fontSize=10;fontColor=#808080;" parent="1" vertex="1">
          <mxGeometry x="-360" y="390" width="70" height="30" as="geometry" />
        </mxCell>
        <mxCell id="jHCnX__sWSKemb0coJZo-29" value="" style="shape=image;verticalLabelPosition=bottom;labelBackgroundColor=default;verticalAlign=top;aspect=fixed;imageAspect=0;image=data:image/svg+xml,PHN2ZyB4bWxucz0iaHR0cDovL3d3dy53My5vcmcvMjAwMC9zdmciIGhlaWdodD0iNDhweCIgd2lkdGg9IjQ4cHgiIHZpZXdCb3g9IjAgMCA0OCA0OCI+PHBhdGggZD0iTTI2LDE3aC04Yy0zLjg2NiwwLTctMy4xMzQtNy03djBjMC0zLjg2NiwzLjEzNC03LDctN2g4VjE3eiIgZmlsbD0iI2U2NGExOSIvPjxwYXRoIGQ9Ik0yNSwzMWgtN2MtMy44NjYsMC03LTMuMTM0LTctN3YwYzAtMy44NjYsMy4xMzQtNyw3LTdoN1YzMXoiIGZpbGw9IiM3YzRkZmYiLz48cGF0aCBkPSJNMTgsNDVMMTgsNDVjLTMuODY2LDAtNy0zLjEzNC03LTd2MGMwLTMuODY2LDMuMTM0LTcsNy03aDd2N0MyNSw0MS44NjYsMjEuODY2LDQ1LDE4LDQ1eiIgZmlsbD0iIzY2YmI2YSIvPjxwYXRoIGQ9Ik0zMiwxN2gtN1YzaDdjMy44NjYsMCw3LDMuMTM0LDcsN3YwQzM5LDEzLjg2NiwzNS44NjYsMTcsMzIsMTd6IiBmaWxsPSIjZmY3MDQzIi8+PGNpcmNsZSBmaWxsPSIjMjliNmY2IiByPSI3IiBjeT0iMjQiIGN4PSIzMiIvPjwvc3ZnPg==;" parent="1" vertex="1">
          <mxGeometry x="-585" y="516.75" width="30" height="30" as="geometry" />
        </mxCell>
        <mxCell id="jHCnX__sWSKemb0coJZo-32" value="UI Design by Figma" style="text;html=1;resizable=0;autosize=1;align=left;verticalAlign=middle;points=[];fillColor=none;strokeColor=none;rounded=0;fontSize=10;labelBorderColor=none;spacing=0;" parent="1" vertex="1">
          <mxGeometry x="-615" y="545" width="110" height="20" as="geometry" />
        </mxCell>
        <mxCell id="jHCnX__sWSKemb0coJZo-33" value="" style="shape=image;verticalLabelPosition=bottom;labelBackgroundColor=default;verticalAlign=top;aspect=fixed;imageAspect=0;image=data:image/svg+xml,PHN2ZyB4bWxucz0iaHR0cDovL3d3dy53My5vcmcvMjAwMC9zdmciIGhlaWdodD0iNDhweCIgd2lkdGg9IjQ4cHgiIHZpZXdCb3g9IjAgMCA0OCA0OCI+PHBhdGggZD0iTTM1LjU0NyA0Mi40MzFsLTMuMTgyLTMuMTgyLTIuMTIxIDIuMTIxIDMuMTgyIDMuMTgyYy41ODYuNTg2IDEuNTM2LjU4NiAyLjEyMSAwUzM2LjEzMyA0My4wMTcgMzUuNTQ3IDQyLjQzMXpNMzguNTQ3IDI0LjQzMWwtMy4xODItMy4xODItMi4xMjEgMi4xMjEgMy4xODIgMy4xODJjLjU4Ni41ODYgMS41MzYuNTg2IDIuMTIxIDBTMzkuMTMzIDI1LjAxNyAzOC41NDcgMjQuNDMxek0xMi42ODMgNDIuNDMxbDMuMTgyLTMuMTgyIDIuMTIxIDIuMTIxLTMuMTgyIDMuMTgyYy0uNTg2LjU4Ni0xLjUzNi41ODYtMi4xMjEgMFMxMi4wOTcgNDMuMDE3IDEyLjY4MyA0Mi40MzF6TTkuNDMzIDI0LjQzMWwzLjE4Mi0zLjE4MiAyLjEyMSAyLjEyMS0zLjE4MiAzLjE4MmMtLjU4Ni41ODYtMS41MzYuNTg2LTIuMTIxIDBTOC44NDcgMjUuMDE3IDkuNDMzIDI0LjQzMXoiIGZpbGw9IiNmZmNjODAiLz48cGF0aCBkPSJNMzggOGMwLTEuOTMzLTEuMTQ5LTMtMy4yMzEtM1MzMSA3LjU2NyAzMSA5LjVjMCAxIDEuOTIzIDEuNSAzIDEuNUMzNi4wODIgMTEgMzggOS45MzMgMzggOHpNMTAgOGMwLTEuOTMzIDEuMTQ5LTMgMy4yMzEtM1MxNyA3LjU2NyAxNyA5LjVjMCAxLTEuOTIzIDEuNS0zIDEuNUMxMS45MTggMTEgMTAgOS45MzMgMTAgOHoiIGZpbGw9IiM0ZGQwZTEiLz48cGF0aCBkPSJNMzUgN0ExIDEgMCAxIDAgMzUgOSAxIDEgMCAxIDAgMzUgN3pNMTMgN0ExIDEgMCAxIDAgMTMgOSAxIDEgMCAxIDAgMTMgN3oiIGZpbGw9IiM0MjQyNDIiLz48cGF0aCBkPSJNMzcsMzRjMCw0Ljc3NC0zLjIxOSwxMC0xMy4zMSwxMEMxNS41NjgsNDQsMTEsMzguNzc0LDExLDM0YzAtNSwxLTUuODA2LDEtMTBjMC00LjY4OCwwLTcsMC0xMCBjMC00Ljc3NCwzLjA3Ni0xMSwxMS42OS0xMVMzNiw2Ljk5MSwzNiwxM2MwLDMtMC4yMzcsNS40NTMsMCwxMEMzNi4xODYsMjYuNTYyLDM3LDMxLDM3LDM0eiIgZmlsbD0iIzRkZDBlMSIvPjxnPjxwYXRoIGQ9Ik0yOSA2QTQgNCAwIDEgMCAyOSAxNCA0IDQgMCAxIDAgMjkgNnpNMTkgNkE0IDQgMCAxIDAgMTkgMTQgNCA0IDAgMSAwIDE5IDZ6IiBmaWxsPSIjZjVmNWY1Ii8+PC9nPjxnPjxwYXRoIGQ9Ik0yNCAyMGMwIC41NTIuNDQ4IDEgMSAxczEtLjQ0OCAxLTF2LTNoLTJWMjB6TTIyIDIwYzAgLjU1Mi40NDggMSAxIDFzMS0uNDQ4IDEtMXYtM2gtMlYyMHoiIGZpbGw9IiNlZWUiLz48L2c+PHBhdGggZD0iTTI2LjUsMThjLTAuNDEyLDAtMC42NTMtMC4wODUtMS4wMTEtMC4yMDVjLTAuOTc1LTAuMzI4LTIuMDIxLTAuMzI2LTIuOTk2LDAuMDAyIEMyMi4xMzgsMTcuOTE2LDIxLjkxLDE4LDIxLjUsMThjLTEuMzM0LDAtMS41LTEtMS41LTEuNWMwLTEuNSwxLjUtMi41LDMtMi41YzAuODM1LDAsMS4xNjUsMCwyLDBjMS41LDAsMywxLDMsMi41IEMyOCwxNywyNy44MzQsMTgsMjYuNSwxOHoiIGZpbGw9IiNmZmNjODAiLz48Zz48cGF0aCBkPSJNMjcgOUExIDEgMCAxIDAgMjcgMTEgMSAxIDAgMSAwIDI3IDl6TTE3IDlBMSAxIDAgMSAwIDE3IDExIDEgMSAwIDEgMCAxNyA5ek0yNCAxM0EyIDEgMCAxIDAgMjQgMTUgMiAxIDAgMSAwIDI0IDEzeiIgZmlsbD0iIzQyNDI0MiIvPjwvZz48L3N2Zz4=;" parent="1" vertex="1">
          <mxGeometry x="-40" y="492.81" width="86.5" height="86.5" as="geometry" />
        </mxCell>
        <mxCell id="jHCnX__sWSKemb0coJZo-36" value="Go" style="text;html=1;resizable=0;autosize=1;align=center;verticalAlign=middle;points=[];fillColor=none;strokeColor=none;rounded=0;" parent="1" vertex="1">
          <mxGeometry x="46.5" y="600" width="40" height="30" as="geometry" />
        </mxCell>
        <mxCell id="jHCnX__sWSKemb0coJZo-38" value="FrontEnd" style="text;html=1;resizable=0;autosize=1;align=left;verticalAlign=middle;points=[];fillColor=none;strokeColor=none;rounded=0;" parent="1" vertex="1">
          <mxGeometry x="-490" y="195" width="70" height="30" as="geometry" />
        </mxCell>
        <mxCell id="jHCnX__sWSKemb0coJZo-39" value="FrameWork : Gin&lt;br&gt;&lt;br&gt;APIの開発" style="text;html=1;resizable=0;autosize=1;align=left;verticalAlign=middle;points=[];fillColor=none;strokeColor=none;rounded=0;fontSize=10;labelBorderColor=none;spacing=0;" parent="1" vertex="1">
          <mxGeometry x="60" y="510" width="100" height="50" as="geometry" />
        </mxCell>
        <mxCell id="jHCnX__sWSKemb0coJZo-45" style="edgeStyle=orthogonalEdgeStyle;rounded=0;orthogonalLoop=1;jettySize=auto;html=1;strokeColor=#999999;fontSize=10;fontColor=#808080;" parent="1" edge="1">
          <mxGeometry relative="1" as="geometry">
            <mxPoint x="180" y="533" as="targetPoint" />
            <mxPoint x="230" y="533" as="sourcePoint" />
          </mxGeometry>
        </mxCell>
        <mxCell id="jHCnX__sWSKemb0coJZo-40" value="" style="whiteSpace=wrap;html=1;shadow=0;strokeColor=#EBEBEB;strokeWidth=1;" parent="1" vertex="1">
          <mxGeometry x="240" y="470" width="290" height="160" as="geometry" />
        </mxCell>
        <mxCell id="jHCnX__sWSKemb0coJZo-42" value="Docker" style="text;html=1;resizable=0;autosize=1;align=center;verticalAlign=middle;points=[];fillColor=none;strokeColor=none;rounded=0;" parent="1" vertex="1">
          <mxGeometry x="354" y="630" width="60" height="30" as="geometry" />
        </mxCell>
        <mxCell id="jHCnX__sWSKemb0coJZo-46" value="" style="shape=image;verticalLabelPosition=bottom;labelBackgroundColor=default;verticalAlign=top;aspect=fixed;imageAspect=0;image=data:image/svg+xml,PHN2ZyB4bWxucz0iaHR0cDovL3d3dy53My5vcmcvMjAwMC9zdmciIGhlaWdodD0iNDhweCIgd2lkdGg9IjQ4cHgiIHZpZXdCb3g9IjAgMCA0OCA0OCI+PHBhdGggZD0iTTQwLDIwYzAuMzkxLTEuNzM1LTAuMDkyLTMuNzgtMi41LTZjLTMuOTE0LDMuNTQzLTIuNzk1LDcuMjI3LTEuNSw5YzAsMC0wLjE2NiwxLTQsMVMyLDI0LDIsMjRTMC4xNjcsNDAsMTgsNDBjMTUuNTkzLDAsMTkuOTczLTEyLjAwMywyMC44MjgtMTUuMDc2QzM5LjE4MiwyNC45NzIsMzkuNTc5LDI1LjAwMyw0MCwyNWMyLjE0Ny0wLjAxNyw0LjkzLTEuMTcxLDYtNS40ODRDNDMuMTYyLDE4LjUzMyw0MS4zMzksMTguOTc4LDQwLDIweiIgZmlsbD0iIzAzQTlGNCIvPjxwYXRoIGQ9Ik0yLjE2NSwyOEMyLjksMzIuNzM5LDUuOTgzLDQwLDE4LDQwYzEyLjE4NSwwLDE3LjUyMy03LjMzLDE5LjY4Mi0xMkgyLjE2NXoiIGZpbGw9IiMwMjg4RDEiLz48cGF0aCBkPSJNMTkuODEyLDM5LjkzOEMxOC44OTIsMzkuNjE2LDE0Ljc0LDM4Ljg0OCwxNCwzM2MtNC4yMDksMS44NjMtNy45MzgsMS4zNzUtOS41NzksMS4wMDhDNi41ODMsMzcuMjM3LDEwLjU5MSw0MCwxOCw0MEMxOC42MjMsNDAsMTkuMjI0LDM5Ljk3NiwxOS44MTIsMzkuOTM4eiIgZmlsbD0iIzgxRDRGQSIvPjxwYXRoIGQ9Ik0xOCAzMEEyIDIgMCAxIDAgMTggMzRBMiAyIDAgMSAwIDE4IDMwWiIgZmlsbD0iI0ZGRiIvPjxwYXRoIGQ9Ik0xNC45MTQsMzMuNTk3YzAuMjI0LDAuNTA1LDAuMDIsMS4xNjItMC41MSwxLjMxOGMtMy4zMDEsMC45NzMtNi4xNDYsMS4xMDItOC4yOTcsMS4xMDJjLTAuNjQ0LTAuNjE5LTEuMTk0LTEuMjc5LTEuNjU2LTEuOTYzYzIuNTg1LDAsNi43MS0wLjEyLDkuMTQ0LTAuOTY2QzE0LjExNywzMi45MDYsMTQuNjksMzMuMDksMTQuOTE0LDMzLjU5N3ogTTIsMjdjMCwwLDEuODc1LDAuMTI1LDMtMWMxLjg3NSwxLjY4OCw1Ljk0LDEuMDg4LDcsMGMxLjA2MywxLjY4OCw2LjkzOCwxLjM3NSw4LDBjMS4yNSwxLjQzOCw2LjYyNSwxLjc1LDgsMGMwLjQ3OSwxLjQ2MSw2LjgxOSwxLjg3NCw4LDBjMS4wNjEsMS4wODgsNS4wNjMsMS45MzgsNy4zMTEsMEM0My44NzUsMjcuMTg4LDQ2LDI3LDQ2LDI3djFIMiBNMTcsMzJjMCwwLjU1MiwwLjQ0OCwxLDEsMXMxLTAuNDQ4LDEtMXMtMC40NDgtMS0xLTFTMTcsMzEuNDQ4LDE3LDMyeiIgZmlsbD0iIzM3NDc0RiIvPjxwYXRoIGQ9Ik0xMSwyNEg2di01aDVWMjR6IE0yMSwxOWgtNXY1aDVWMTl6IE0zMSwxOWgtNXY1aDVWMTl6IE0xNiwxNGgtNXY1aDVWMTR6IE0yNiwxNGgtNXY1aDVWMTR6IiBmaWxsPSIjMDE1NzlCIi8+PHBhdGggZD0iTTE2LDI0aC01di01aDVWMjR6IE0yNiwxOWgtNXY1aDVWMTl6IE0yNiw5aC01djVoNVY5eiBNMjEsMTRoLTV2NWg1VjE0eiIgZmlsbD0iIzAyODhEMSIvPjwvc3ZnPg==;" parent="1" vertex="1">
          <mxGeometry x="251" y="518.75" width="48" height="48" as="geometry" />
        </mxCell>
        <mxCell id="jHCnX__sWSKemb0coJZo-47" value="" style="whiteSpace=wrap;html=1;shadow=0;strokeColor=#EBEBEB;strokeWidth=1;" parent="1" vertex="1">
          <mxGeometry x="310" y="480" width="210" height="120" as="geometry" />
        </mxCell>
        <mxCell id="jHCnX__sWSKemb0coJZo-48" value="コンテナ" style="text;html=1;resizable=0;autosize=1;align=center;verticalAlign=middle;points=[];fillColor=none;strokeColor=none;rounded=0;fontSize=10;labelBorderColor=none;spacing=0;" parent="1" vertex="1">
          <mxGeometry x="245" y="566.75" width="60" height="20" as="geometry" />
        </mxCell>
        <mxCell id="jHCnX__sWSKemb0coJZo-49" value="MySQL" style="text;html=1;resizable=0;autosize=1;align=center;verticalAlign=middle;points=[];fillColor=none;strokeColor=none;rounded=0;" parent="1" vertex="1">
          <mxGeometry x="384" y="600" width="60" height="30" as="geometry" />
        </mxCell>
        <mxCell id="uLu-PSUtO7_ONj930s_b-1" value="" style="shape=image;verticalLabelPosition=bottom;labelBackgroundColor=default;verticalAlign=top;aspect=fixed;imageAspect=0;image=data:image/png,iVBORw0KGgoAAAANSUhEUgAAAFAAAABQCAYAAACOEfKtAAAABmJLR0QA/wD/AP+gvaeTAAADeUlEQVR4nO2au08UURSHP4hB0EQ7C3fRAiEQC9E/wcTYGBuk9D+wNBAbCxMTgpV2+Ch8PwgVEJFSY+xsiIko8REFH2GFRaLGB2txz4TZcRdm9+x6Z8L5kpu599y7O7/95c7MnbMXDMMwDMMwDMPwQhYYBpaAQkrKEjACtNfBj4rIAjn8G1JtyQGZmrtSAcMiZNS3kArJAGM47Xd9Cgku2zSZF9CK077oU0RwKaQVtf7GGgnZsJiBSsxAJWagEjNQiRmoxAxUYgYq0RqYl2NWK8QDrXJc8CniNm4lP0a6TMwC4zjtt3wK2QXM8e8r0WPgUYLbgd5Z+Q1Vo72EG8rEVyg2NGntgHL6/xt3SH86y+slvEj601leHyKWzqqRkA2LGajEDFRiBioxA5WYgUrMQCX1MjBYXw1G4oPEX3s1AqeAl8A34AXQR7HmbmACWJYyAewvoSOxBG8i0UxMIPwT0CSxJmnH/VF9Mu41cAmYkXa/9HcCXyX2XEpBYp0RHaUI3kS+xNBSN8qls8L7T45JrDcSX4+HMu6QtDPAEHBS2tel/yIuKdCAM7oA3IzoiJL4dFZ4Bj6Q2CTFM7AJ+Cz1fTLmPKuz7J7U3wBngMNAS+gcs9K/JxRrl9iHiI4oNUtnadnN2gYOAH+Ag3IciIw9J/XTuBn0FvgN7MQZM0XxrF0Ajshnf0isOXTeZon9jOiIEsTn8GxguXRWILANZ9y8HNso/lGduFzdU+CAxMcj5+gGTgBPWJ2RsDoDw3v89hJvBiY+nRUWPin1yRJ94O51K8A1ifdK/Apu69k2ae+Q/nlp35D2ZWA78B74RbEpcR4iiUxnheM9Uu8p85njodg8sFniVyU2jTPpmbSHpD/8FJ4G3kl9GeiKnKvcw8v7MieOgev1tQDfJXYhFN+Ku0e+kv4Z4CywJTSmG7iPMy0HfJSxbZFzpc7AuPTjLrfgxt+h1NMl3zMac3zqDSzgnqZTwNGaKKr8/CoDN9VISLV4/1dMiyUTlJiBSsxAJWagEtudZbuzqiLx6Szfu69sd1ad2wHe16G2O0uJ7c5S4v1lXIlav60DlZiBSsxAJWagEjNQiRmoxAxUYgYq0Rq4JMc0ZWICgnRWfs1RdWaE9Kezhn0K6cDtJij1B3YaSo7i3V1eyOD2sOTxb0jcksfNPO/mGYZhGIZhGMaG5C9njjOgkMCYtQAAAABJRU5ErkJggg==;" vertex="1" parent="1">
          <mxGeometry x="320" y="518.75" width="54.13" height="54.13" as="geometry" />
        </mxCell>
        <mxCell id="uLu-PSUtO7_ONj930s_b-2" value="格納データ [&lt;br&gt;ユーザーID&lt;br&gt;ユーザーパスワード&lt;br&gt;位置情報&lt;br&gt;加速度&lt;br&gt;速度 &lt;br&gt;]" style="text;html=1;resizable=0;autosize=1;align=left;verticalAlign=middle;points=[];fillColor=none;strokeColor=none;rounded=0;fontSize=10;labelBorderColor=none;spacing=0;" vertex="1" parent="1">
          <mxGeometry x="390" y="500.82" width="110" height="90" as="geometry" />
        </mxCell>
        <mxCell id="uLu-PSUtO7_ONj930s_b-4" value="BackEnd" style="text;html=1;resizable=0;autosize=1;align=left;verticalAlign=middle;points=[];fillColor=none;strokeColor=none;rounded=0;" vertex="1" parent="1">
          <mxGeometry x="-60" y="424.13" width="70" height="30" as="geometry" />
        </mxCell>
        <mxCell id="uLu-PSUtO7_ONj930s_b-5" value="" style="shape=image;verticalLabelPosition=bottom;labelBackgroundColor=default;verticalAlign=top;aspect=fixed;imageAspect=0;image=data:image/svg+xml,PHN2ZyB4bWxucz0iaHR0cDovL3d3dy53My5vcmcvMjAwMC9zdmciIGhlaWdodD0iNDhweCIgd2lkdGg9IjQ4cHgiIHZpZXdCb3g9IjAgMCA0OCA0OCI+PHBhdGggZD0iTTMwLDEzSDE4bC03LDExbDcsMTFoMTJsNy0xMUwzMCwxM3ogTTI0LDI5Yy0yLjgsMC01LTIuMi01LTVzMi4yLTUsNS01czUsMi4yLDUsNVMyNi44LDI5LDI0LDI5eiIgZmlsbD0iI0NGRDhEQyIvPjxwYXRoIGQ9Ik0zNC44LDcuMkMzNC4zLDYuNSwzMy41LDYsMzIuNiw2SDE1LjRjLTAuOSwwLTEuNywwLjUtMi4yLDEuMmwtNS44LDkuNUwxMiwyNGw2LjMtMTBoMjAuNkwzNC44LDcuMnogTTE2LDExYy0wLjYsMC0xLTAuNC0xLTFzMC40LTEsMS0xYzAuNiwwLDEsMC40LDEsMVMxNi42LDExLDE2LDExeiBNMzIsMTFjLTAuNiwwLTEtMC40LTEtMXMwLjQtMSwxLTFjMC42LDAsMSwwLjQsMSwxUzMyLjYsMTEsMzIsMTF6IiBmaWxsPSIjMjE5NkYzIi8+PHBhdGggZD0iTTE4LjMsMzRMNy40LDE2LjhsLTMuNiw1LjljLTAuNSwwLjgtMC41LDEuOSwwLDIuN2w5LjQsMTUuNGMwLjUsMC44LDEuMywxLjIsMi4yLDEuMmg5LjFsNS4xLThIMTguM3ogTTgsMjVjLTAuNiwwLTEtMC40LTEtMXMwLjQtMSwxLTFjMC42LDAsMSwwLjQsMSwxUzguNiwyNSw4LDI1eiBNMTYsMzljLTAuNiwwLTEtMC40LTEtMXMwLjQtMSwxLTFjMC42LDAsMSwwLjQsMSwxUzE2LjYsMzksMTYsMzl6IiBmaWxsPSIjRkZDMTA3Ii8+PHBhdGggZD0iTTcuNCAxNi44TDEyIDI0IDE0LjQgMjAuMyA4LjUgMTV6IiBmaWxsPSIjMTk3NkQyIi8+PHBhdGggZD0iTTI0LjYgNDJMMjkuNyAzNCAyNC45IDM0IDIyLjYgNDJ6IiBmaWxsPSIjRjlBODI1Ii8+PHBhdGggZD0iTTQ0LjIsMjIuN0wzOC45LDE0aC05LjJMMzYsMjRMMjQuNiw0Mmg4YzAuOSwwLDEuNy0wLjUsMi4yLTEuMmw5LjUtMTUuNEM0NC44LDI0LjUsNDQuOCwyMy41LDQ0LjIsMjIuN3ogTTMyLDM5Yy0wLjYsMC0xLTAuNC0xLTFzMC40LTEsMS0xYzAuNiwwLDEsMC40LDEsMVMzMi42LDM5LDMyLDM5eiBNNDAsMjVjLTAuNiwwLTEtMC40LTEtMXMwLjQtMSwxLTFjMC42LDAsMSwwLjQsMSwxUzQwLjYsMjUsNDAsMjV6IiBmaWxsPSIjREQyQzAwIi8+PHBhdGggZD0iTTM4LjkgMTRMMjkuNyAxNCAzMi4yIDE3LjkgNDAuMSAxNnoiIGZpbGw9IiNCRjM2MEMiLz48L3N2Zz4=;" vertex="1" parent="1">
          <mxGeometry x="-40" y="650" width="70" height="70" as="geometry" />
        </mxCell>
        <mxCell id="uLu-PSUtO7_ONj930s_b-7" value="Google Cloud Platformでサーバー構築" style="text;html=1;resizable=0;autosize=1;align=center;verticalAlign=middle;points=[];fillColor=none;strokeColor=none;rounded=0;" vertex="1" parent="1">
          <mxGeometry x="30" y="670" width="230" height="30" as="geometry" />
        </mxCell>
      </root>
    </mxGraphModel>
  </diagram>
</mxfile>
